<svg width="64" height="64" viewBox="0 0 64 64" fill="none" xmlns="http://www.w3.org/2000/svg">
<path fill-rule="evenodd" clip-rule="evenodd" d="M32 64C49.6731 64 64 49.6731 64 32C64 14.3269 49.6731 0 32 0C14.3269 0 0 14.3269 0 32C0 49.6731 14.3269 64 32 64ZM32 8C35.1517 8 38.2726 8.62078 41.1844 9.82689C44.0962 11.033 46.742 12.8008 48.9706 15.0294C51.1992 17.258 52.967 19.9038 54.1731 22.8156C55.3792 25.7274 56 28.8483 56 32C56 33.1046 55.1046 34 54 34C52.8954 34 52 33.1046 52 32H51.992C51.992 29.3746 51.4749 26.7749 50.4702 24.3494C49.4655 21.9239 47.9929 19.7199 46.1365 17.8635C44.2801 16.0071 42.0761 14.5345 39.6506 13.5298C37.2251 12.5251 34.6254 12.008 32 12.008V12C30.8954 12 30 11.1046 30 10C30 8.89543 30.8954 8 32 8ZM52.7849 43.9999C53.3371 43.0433 53.0093 41.8202 52.0527 41.2679C51.0962 40.7157 49.8731 41.0434 49.3208 41.9999L49.314 41.9959C48.4404 43.509 47.3723 44.901 46.1369 46.1364L46.1425 46.1421C45.3614 46.9231 45.3613 48.1895 46.1424 48.9706C46.9234 49.7516 48.1898 49.7516 48.9708 48.9706C50.4539 47.4875 51.7362 45.8163 52.7849 43.9999Z" fill="#0F6FFF"/>
</svg>
