<svg width="64" height="64" viewBox="0 0 64 64" fill="none" xmlns="http://www.w3.org/2000/svg">
<path fill-rule="evenodd" clip-rule="evenodd" d="M32 0C14.3269 0 0 14.3269 0 32C0 49.6731 14.3269 64 32 64C49.6731 64 64 49.6731 64 32C64 14.3269 49.6731 0 32 0ZM32 9C30.3431 9 29 10.3431 29 12C29 13.6569 30.3431 15 32 15C34.2325 15 36.4431 15.4397 38.5056 16.294C40.5682 17.1484 42.4422 18.4006 44.0208 19.9792C45.5994 21.5578 46.8516 23.4318 47.706 25.4944C48.5603 27.5569 49 29.7675 49 32C49 33.6569 50.3431 35 52 35C53.6569 35 55 33.6569 55 32C55 28.9796 54.4051 25.9888 53.2492 23.1983C52.0934 20.4078 50.3992 17.8723 48.2635 15.7365C46.1277 13.6008 43.5922 11.9066 40.8017 10.7508C38.0112 9.59491 35.0204 9 32 9Z" fill="#0047FF"/>
</svg>
